<?xml version="1.0" standalone="no"?>
<!DOCTYPE svg PUBLIC "-//W3C//DTD SVG 20010904//EN"
 "http://www.w3.org/TR/2001/REC-SVG-20010904/DTD/svg10.dtd">
<svg version="1.0" xmlns="http://www.w3.org/2000/svg"
 width="948.000000pt" height="1024.000000pt" viewBox="0 0 948.000000 1024.000000"
 preserveAspectRatio="xMidYMid meet">

<g transform="translate(0.000000,1024.000000) scale(0.100000,-0.100000)"
fill="#000000" stroke="none">
<path d="M4330 9967 c-197 -86 -426 -235 -550 -357 -98 -96 -172 -195 -264
-354 -123 -211 -173 -376 -183 -611 -9 -213 22 -304 179 -536 133 -195 183
-337 176 -494 -3 -79 -8 -100 -41 -168 -59 -126 -198 -246 -303 -262 -54 -9
-117 9 -160 47 -62 55 -64 64 -62 295 3 193 1 214 -21 293 -39 137 -83 220
-148 281 -66 59 -163 109 -229 117 l-44 5 35 -63 c55 -98 68 -148 63 -244 -4
-72 -10 -95 -46 -170 -53 -110 -82 -152 -193 -278 -110 -124 -170 -211 -245
-355 l-57 -108 6 -90 c3 -51 21 -153 42 -235 65 -262 59 -304 -54 -374 -55
-35 -75 -41 -131 -44 -62 -4 -68 -2 -110 30 -58 44 -114 119 -142 188 -19 47
-22 74 -22 180 1 131 1 132 103 505 10 39 15 72 10 73 -5 2 -28 -8 -52 -21
-157 -94 -386 -396 -456 -603 -25 -76 -68 -261 -80 -350 -11 -74 6 -212 29
-240 11 -12 142 -14 916 -14 l904 0 64 59 c64 57 119 91 150 91 9 0 32 -31 57
-75 l41 -75 183 0 182 0 7 42 c4 23 4 89 1 147 -5 88 -3 119 14 183 39 149 77
200 285 378 152 130 212 236 223 395 6 89 -13 212 -47 305 -49 133 -2 132 125
-2 121 -127 167 -212 200 -369 21 -100 19 -190 -9 -336 -33 -172 -36 -218 -21
-306 25 -145 117 -258 242 -297 127 -39 240 -21 342 56 82 61 95 58 148 -36
23 -41 53 -94 67 -117 l26 -43 194 0 194 0 6 24 c3 13 6 85 7 160 0 79 4 136
10 136 18 0 95 -79 149 -154 30 -42 69 -95 85 -119 l31 -42 196 -3 196 -2 7
32 c18 79 207 594 249 675 67 130 172 232 309 297 31 16 57 33 57 40 0 26 -61
137 -117 211 -32 44 -82 112 -110 150 -74 102 -154 173 -268 240 -106 62 -248
136 -252 131 -6 -6 29 -78 68 -142 67 -111 82 -157 83 -259 1 -109 -17 -151
-102 -231 -84 -80 -127 -98 -242 -98 -178 -1 -254 60 -353 282 -33 72 -72 150
-88 172 -26 36 -82 80 -101 80 -3 0 -8 -60 -10 -132 -3 -83 -9 -143 -17 -160
-16 -31 -119 -114 -168 -135 -48 -19 -96 -3 -113 38 -14 34 -8 109 16 204 45
172 53 281 30 410 -19 109 -48 191 -108 308 -89 174 -143 233 -374 413 -60 46
-112 84 -115 84 -4 0 -9 -20 -11 -45 -11 -96 -106 -165 -227 -165 l-64 0 -62
63 c-108 108 -235 270 -271 342 -50 102 -74 209 -74 327 0 55 5 120 11 146 31
135 100 311 196 501 57 113 103 206 103 208 0 9 -33 -1 -100 -30z"/>
<path d="M4895 9536 c-74 -34 -154 -125 -184 -210 -65 -186 37 -406 188 -406
54 0 59 82 11 190 -28 64 -33 87 -34 155 0 90 20 142 95 243 l40 52 -33 0
c-18 0 -55 -11 -83 -24z"/>
<path d="M5775 8986 c-39 -17 -129 -116 -175 -192 -34 -57 -35 -60 -38 -185
-6 -211 39 -335 162 -454 82 -79 146 -169 169 -236 8 -24 21 -82 28 -127 7
-45 16 -82 20 -82 15 0 108 111 127 152 33 68 47 190 34 281 -25 167 -78 263
-264 476 -27 31 -50 69 -54 87 -3 18 3 89 15 158 12 68 21 127 21 130 0 9 -11
7 -45 -8z"/>
<path d="M8435 7099 c-156 -29 -229 -43 -515 -94 -173 -31 -380 -67 -460 -82
-262 -46 -347 -84 -441 -196 -71 -86 -86 -119 -199 -453 -103 -303 -133 -375
-177 -416 l-25 -23 -2731 -5 -2732 -5 -47 -23 c-57 -29 -93 -63 -121 -117 -17
-32 -22 -57 -21 -120 0 -76 8 -103 162 -560 373 -1108 448 -1318 573 -1615 95
-225 123 -256 281 -318 141 -56 230 -67 663 -87 193 -9 424 -20 515 -25 91 -6
314 -17 495 -25 182 -8 501 -24 710 -35 1411 -74 1409 -74 1517 -132 76 -41
129 -87 201 -178 105 -131 140 -237 102 -309 -20 -39 -69 -78 -113 -91 -25 -7
-688 -10 -2023 -10 -2206 0 -2051 5 -2121 -67 -67 -68 -86 -160 -53 -254 36
-100 120 -144 290 -151 22 -1 43 -3 48 -5 4 -3 -14 -21 -40 -42 -73 -59 -99
-90 -142 -172 -140 -272 -61 -590 187 -752 91 -59 152 -83 248 -97 125 -18
272 10 369 72 212 134 319 351 285 579 -22 154 -76 257 -183 354 l-60 55 34 1
c205 3 2614 5 2645 1 l40 -4 -75 -77 c-124 -125 -171 -239 -171 -416 0 -50 7
-117 15 -148 54 -209 226 -365 453 -412 291 -61 602 140 679 438 11 46 14 88
10 162 -9 170 -65 285 -199 409 -37 35 -68 66 -68 69 0 4 39 26 88 51 149 78
223 153 287 291 42 89 55 154 55 266 0 155 -43 308 -126 449 -24 40 -84 110
-156 183 -104 104 -118 122 -118 152 0 18 49 176 110 349 60 174 127 372 149
439 75 232 656 1928 759 2217 37 103 102 228 133 254 16 14 47 30 67 35 20 6
242 44 492 86 641 107 654 110 716 177 89 93 96 226 20 339 -49 72 -168 110
-281 88z m-6366 -1770 c17 -6 38 -23 45 -38 8 -14 62 -171 120 -347 89 -270
105 -326 96 -348 -5 -14 -15 -26 -22 -27 -7 -1 -110 0 -228 1 -230 2 -252 6
-283 54 -45 68 -237 593 -237 645 0 31 8 44 35 59 27 15 430 16 474 1z m1634
-18 l24 -29 5 -314 c3 -172 1 -328 -4 -346 -19 -67 -18 -67 -453 -67 -355 0
-393 2 -418 17 -22 15 -36 49 -91 220 -87 272 -138 460 -134 494 6 53 10 54
550 54 l496 0 25 -29z m1534 7 c13 -12 23 -31 23 -43 0 -39 -175 -651 -195
-681 -25 -38 -73 -44 -375 -44 -406 1 -461 11 -485 91 -6 21 -8 148 -5 342 l5
309 28 24 28 24 476 0 c476 0 477 0 500 -22z m1191 6 c15 -10 22 -25 22 -46 0
-30 -168 -544 -197 -603 -22 -45 -62 -83 -97 -94 -17 -5 -144 -12 -281 -16
-333 -9 -335 -8 -291 137 14 46 54 187 90 313 80 284 78 281 118 305 31 19 51
20 323 20 247 0 294 -2 313 -16z m-3958 -1232 c40 -19 35 -7 134 -327 80 -260
82 -270 42 -285 -34 -13 -384 15 -429 34 -47 19 -65 55 -147 301 -88 264 -86
249 -54 274 25 20 40 21 223 21 167 0 201 -3 231 -18z m1247 -6 l28 -24 5
-269 c3 -147 3 -283 0 -302 -3 -21 -15 -42 -32 -54 -28 -21 -31 -21 -255 -8
-247 14 -283 22 -307 69 -16 31 -175 542 -176 565 0 4 9 16 20 27 19 19 33 20
354 20 l335 0 28 -24z m1200 -2 c32 -32 29 -55 -37 -282 -26 -92 -60 -210 -75
-262 -39 -139 -42 -146 -83 -164 -34 -16 -55 -16 -259 -2 -121 8 -230 19 -241
25 -37 19 -40 62 -34 369 l7 294 28 24 28 24 320 0 320 0 26 -26z m1101 6 c12
-12 22 -25 22 -29 0 -28 -199 -651 -221 -692 -27 -51 -115 -59 -394 -38 -156
12 -189 22 -193 60 -4 38 156 609 187 667 25 46 57 51 327 52 238 0 251 -1
272 -20z m-3373 -2709 c45 -30 81 -87 90 -142 22 -129 -110 -252 -235 -220
-159 42 -202 238 -76 348 20 18 49 35 64 39 15 3 32 7 37 9 24 8 83 -9 120
-34z m3371 4 c53 -31 81 -69 95 -131 16 -70 -2 -127 -55 -180 -68 -69 -145
-78 -233 -28 -130 75 -118 274 22 347 47 25 121 21 171 -8z"/>
<path d="M1009 6483 c-77 -84 -181 -260 -212 -358 -60 -192 -81 -311 -80 -465
0 -363 81 -640 222 -758 l48 -41 -39 127 c-37 120 -57 179 -131 382 -26 72
-31 100 -31 180 0 68 5 111 18 150 39 115 124 214 224 260 45 20 52 27 47 45
-39 132 -44 257 -16 408 l17 97 -21 0 c-12 0 -33 -12 -46 -27z"/>
<path d="M8494 5812 c-44 -76 -92 -138 -120 -154 -17 -10 -55 -22 -85 -28
-109 -21 -168 -89 -196 -227 -21 -100 -12 -185 22 -219 21 -21 33 -24 102 -24
43 0 95 5 115 10 63 18 120 69 155 140 33 65 33 66 39 260 3 110 2 213 -4 235
l-9 40 -19 -33z"/>
<path d="M7730 5694 c-208 -111 -231 -128 -374 -286 -61 -67 -86 -88 -105 -88
-14 0 -32 -4 -39 -8 -35 -22 -191 -484 -166 -490 17 -4 139 45 187 75 22 14
41 22 44 20 2 -3 -9 -43 -25 -89 -54 -153 -75 -269 -75 -413 0 -101 5 -147 21
-208 27 -97 84 -208 128 -247 36 -31 117 -60 171 -60 54 0 59 -24 39 -191 -40
-336 -118 -502 -395 -849 -193 -241 -230 -302 -231 -382 0 -65 10 -86 81 -168
l62 -73 -17 -31 c-66 -124 -238 -301 -392 -405 -60 -41 -113 -77 -117 -81 -5
-4 12 -39 37 -76 44 -67 106 -216 106 -254 0 -27 12 -31 45 -15 242 112 348
174 495 292 149 119 315 307 444 503 85 128 148 290 113 290 -19 0 -79 -22
-152 -55 -33 -15 -73 -32 -90 -36 -69 -20 -135 38 -135 118 0 80 63 170 271
388 63 67 137 154 166 196 243 354 307 780 202 1347 -12 61 -24 112 -28 112
-3 0 -19 -31 -36 -68 -50 -111 -120 -162 -224 -162 -27 0 -47 6 -60 19 -26 26
-49 105 -57 194 -8 98 12 370 38 492 29 142 98 337 179 504 38 79 69 156 69
172 0 32 -31 69 -57 69 -10 0 -65 -25 -123 -56z"/>
<path d="M481 4493 c-17 -68 -23 -196 -12 -280 23 -182 72 -329 150 -448 57
-87 192 -225 249 -254 l42 -21 0 29 c0 47 37 134 70 166 26 25 39 29 83 29 93
-1 173 -60 221 -164 38 -82 40 -120 16 -334 -25 -224 -24 -419 4 -521 30 -111
157 -352 269 -510 52 -73 106 -135 118 -135 4 0 13 17 20 38 27 85 98 172 182
221 20 13 37 25 37 28 0 2 -15 23 -34 46 -146 181 -221 419 -186 597 8 43 7
46 -29 77 -21 17 -51 58 -68 90 -81 153 -233 558 -430 1146 l-16 48 -66 -67
c-103 -104 -184 -133 -281 -99 -90 32 -171 115 -257 264 -26 47 -53 86 -60 88
-7 3 -16 -12 -22 -34z"/>
<path d="M8425 3258 c-11 -6 -34 -23 -52 -39 -17 -15 -60 -42 -95 -60 -35 -19
-83 -54 -108 -79 -53 -52 -150 -194 -150 -218 0 -45 43 -202 56 -202 7 0 37
35 65 77 72 106 109 138 207 175 70 26 88 38 109 69 48 73 67 187 42 258 -12
33 -37 40 -74 19z"/>
<path d="M988 2282 c-16 -2 -28 -7 -28 -12 0 -5 36 -41 80 -80 104 -95 151
-159 214 -293 62 -131 113 -187 170 -187 53 0 60 17 52 123 -3 51 -11 110 -17
132 -21 76 -118 198 -210 264 -47 34 -188 63 -261 53z"/>
<path d="M3257 1514 c-3 -3 3 -29 14 -57 11 -28 23 -85 27 -127 l7 -75 78 -3
c42 -2 186 1 318 6 344 13 386 7 654 -88 217 -77 490 -128 705 -133 l125 -2
-5 30 c-8 48 -6 256 3 303 l9 42 -145 0 c-80 0 -179 4 -219 9 -40 5 -116 15
-168 21 -52 6 -131 18 -175 26 -260 47 -366 54 -801 54 -231 0 -423 -3 -427
-6z"/>
<path d="M3687 985 c-46 -16 -80 -46 -114 -99 -30 -47 -25 -73 19 -106 l33
-25 243 4 c145 2 291 -2 360 -9 64 -7 135 -10 157 -8 l39 3 -77 67 c-124 105
-224 144 -442 173 -143 18 -169 18 -218 0z"/>
</g>
</svg>
